<svg width="162" height="40" viewBox="0 0 162 40" fill="none" xmlns="http://www.w3.org/2000/svg">
<g filter="url(#filter0_i_625_178)">
<path d="M43.1367 22.0703C42.7617 22.0234 42.0391 22 40.9688 22H40.0312V6.36719C40.5312 6.39844 41.082 6.41406 41.6836 6.41406C42.2852 6.41406 42.7109 6.38281 42.9609 6.32031L46.8984 13.0117L50.6836 6.32031C50.9336 6.38281 51.4102 6.41406 52.1133 6.41406C52.8164 6.41406 53.418 6.39844 53.918 6.36719V22H52.9805C51.9102 22 51.1875 22.0234 50.8125 22.0703V11.5703L46.9805 18.4258L43.1367 12.1211V22.0703ZM82.6875 22.0469C82.4375 22.0156 82.0273 22 81.457 22H80.168C79.957 22 79.7656 22.0078 79.5938 22.0234L79.582 22C79.6133 21.9453 79.6289 21.8828 79.6289 21.8125C79.6289 21.7422 79.6211 21.668 79.6055 21.5898C79.5977 21.5117 79.5664 21.3711 79.5117 21.168C79.457 20.9648 79.3711 20.6719 79.2539 20.2891L78.7617 18.7188L74.4023 6.36719C74.8867 6.39844 75.5039 6.41406 76.2539 6.41406C77.0039 6.41406 77.4844 6.38281 77.6953 6.32031L81.2227 16.9727L84.3164 6.36719C84.7852 6.39844 85.3633 6.41406 86.0508 6.41406C86.9883 6.41406 87.5352 6.38281 87.6914 6.32031L83.4141 18.6836C83.4141 18.6836 83.2773 19.1406 83.0039 20.0547C82.7773 20.8359 82.6641 21.3438 82.6641 21.5781C82.6641 21.8047 82.6797 21.9492 82.7109 22.0117L82.6875 22.0469ZM92.2969 22C91.1484 22 90.3867 22.0234 90.0117 22.0703V6.34375C90.1992 6.39062 90.5859 6.41406 91.1719 6.41406C91.7656 6.41406 92.4531 6.39844 93.2344 6.36719V19.1875H95.6602C96.3633 19.1875 96.9258 19.1641 97.3477 19.1172C97.293 20.9453 97.2656 21.8945 97.2656 21.9648V22.082C96.5 22.0273 95.2148 22 93.4102 22H92.2969ZM107.883 19.1875C108.367 19.1875 108.703 19.1406 108.891 19.0469L108.938 19.0586L108.82 22H100.043V6.33203C100.254 6.34766 100.488 6.35937 100.746 6.36719L101.566 6.39062C102.113 6.40625 102.707 6.41406 103.348 6.41406C105.137 6.41406 106.906 6.38281 108.656 6.32031C108.57 7.00781 108.527 7.92578 108.527 9.07422C108.527 9.19922 108.535 9.29297 108.551 9.35547L108.527 9.39062C108.121 9.27344 107.543 9.21484 106.793 9.21484H103.102V12.2031H105.879C106.738 12.2031 107.254 12.1797 107.426 12.1328L107.461 15.0273C107.086 14.9883 106.602 14.9688 106.008 14.9688H103.102V19.1875H107.883ZM119.18 7.55078C119.344 7.20703 119.426 6.95312 119.426 6.78906C119.426 6.61719 119.41 6.49219 119.379 6.41406H123.598C123.512 6.50781 123.402 6.62109 123.27 6.75391C123.137 6.87891 122.988 7.03125 122.824 7.21094C122.434 7.64844 122.074 8.15625 121.746 8.73438L118.922 13.8906L121.559 18.8477L121.875 19.4922C122.469 20.7266 122.973 21.5625 123.387 22H119.566C119.535 21.7266 119.402 21.3594 119.168 20.8984L116.871 16.4922C115.254 19.7656 114.426 21.4531 114.387 21.5547C114.348 21.6875 114.316 21.8359 114.293 22H110.473C110.762 21.7031 111.059 21.2852 111.363 20.7461L112.77 18.25L115.266 14.0195L111.984 7.84375C111.633 7.17969 111.324 6.70313 111.059 6.41406H114.996C114.965 6.49219 114.949 6.57812 114.949 6.67188C114.949 6.88281 115.047 7.17578 115.242 7.55078L117.199 11.4648L119.18 7.55078Z" fill="white"/>
<path d="M59.2969 20.1484C58.5859 19.4688 58.0234 18.6523 57.6094 17.6992C57.2031 16.7461 57 15.7031 57 14.5703C57 13.4297 57.1914 12.3516 57.5742 11.3359C57.957 10.3203 58.5039 9.42578 59.2148 8.65234C59.9258 7.87891 60.7852 7.26563 61.793 6.8125C62.8008 6.35156 63.9297 6.12109 65.1797 6.12109C67.3359 6.12109 69.1523 6.80078 70.6289 8.16016C72.207 9.61328 72.9961 11.5742 72.9961 14.043C72.9961 16.4336 72.1836 18.4219 70.5586 20.0078C69.5586 20.9844 68.3672 21.6562 66.9844 22.0234C66.3047 22.2031 65.5078 22.293 64.5938 22.293C63.6875 22.293 62.7539 22.1055 61.793 21.7305C60.8398 21.3555 60.0078 20.8281 59.2969 20.1484ZM60.2578 14.4062C60.2578 15.1328 60.3789 15.8008 60.6211 16.4102C60.8633 17.0195 61.1992 17.543 61.6289 17.9805C62.543 18.9023 63.7188 19.3633 65.1562 19.3633C66.5234 19.3633 67.6211 18.9219 68.4492 18.0391C69.293 17.125 69.7148 15.8789 69.7148 14.3008C69.7148 12.8164 69.3125 11.5781 68.5078 10.5859C67.6406 9.52344 66.4531 8.99219 64.9453 8.99219C63.4844 8.99219 62.3242 9.53125 61.4648 10.6094C60.6602 11.6172 60.2578 12.8828 60.2578 14.4062Z" fill="#FF0000"/>
</g>
<circle cx="127.5" cy="20.5" r="1.5" fill="#FF0000"/>
<defs>
<filter id="filter0_i_625_178" x="40.0312" y="6.12109" width="83.5664" height="20.1719" filterUnits="userSpaceOnUse" color-interpolation-filters="sRGB">
<feFlood flood-opacity="0" result="BackgroundImageFix"/>
<feBlend mode="normal" in="SourceGraphic" in2="BackgroundImageFix" result="shape"/>
<feColorMatrix in="SourceAlpha" type="matrix" values="0 0 0 0 0 0 0 0 0 0 0 0 0 0 0 0 0 0 127 0" result="hardAlpha"/>
<feOffset dy="4"/>
<feGaussianBlur stdDeviation="2"/>
<feComposite in2="hardAlpha" operator="arithmetic" k2="-1" k3="1"/>
<feColorMatrix type="matrix" values="0 0 0 0 0 0 0 0 0 0 0 0 0 0 0 0 0 0 0.25 0"/>
<feBlend mode="normal" in2="shape" result="effect1_innerShadow_625_178"/>
</filter>
</defs>
</svg>
