<svg width="164" height="45" viewBox="0 0 164 45" fill="none" xmlns="http://www.w3.org/2000/svg">
<g filter="url(#filter0_i_540_4)">
<path d="M18.8945 36.1172C18.2695 36.0391 17.0651 36 15.2812 36H13.7188V9.94531C14.5521 9.9974 15.4701 10.0234 16.4727 10.0234C17.4753 10.0234 18.1849 9.97135 18.6016 9.86719L25.1641 21.0195L31.4727 9.86719C31.8893 9.97135 32.6836 10.0234 33.8555 10.0234C35.0273 10.0234 36.0299 9.9974 36.8633 9.94531V36H35.3008C33.5169 36 32.3125 36.0391 31.6875 36.1172V18.6172L25.3008 30.043L18.8945 19.5352V36.1172ZM84.8125 36.0781C84.3958 36.026 83.7122 36 82.7617 36H80.6133C80.2617 36 79.9427 36.013 79.6562 36.0391L79.6367 36C79.6888 35.9089 79.7148 35.8047 79.7148 35.6875C79.7148 35.5703 79.7018 35.4466 79.6758 35.3164C79.6628 35.1862 79.6107 34.9518 79.5195 34.6133C79.4284 34.2747 79.2852 33.7865 79.0898 33.1484L78.2695 30.5312L71.0039 9.94531C71.8112 9.9974 72.8398 10.0234 74.0898 10.0234C75.3398 10.0234 76.1406 9.97135 76.4922 9.86719L82.3711 27.6211L87.5273 9.94531C88.3086 9.9974 89.2721 10.0234 90.418 10.0234C91.9805 10.0234 92.8919 9.97135 93.1523 9.86719L86.0234 30.4727C86.0234 30.4727 85.7956 31.2344 85.3398 32.7578C84.9622 34.0599 84.7734 34.9062 84.7734 35.2969C84.7734 35.6745 84.7995 35.9154 84.8516 36.0195L84.8125 36.0781ZM100.828 36C98.9141 36 97.6445 36.0391 97.0195 36.1172V9.90625C97.332 9.98438 97.9766 10.0234 98.9531 10.0234C99.9427 10.0234 101.089 9.9974 102.391 9.94531V31.3125H106.434C107.605 31.3125 108.543 31.2734 109.246 31.1953C109.155 34.2422 109.109 35.8242 109.109 35.9414V36.1367C107.833 36.0456 105.691 36 102.684 36H100.828ZM126.805 31.3125C127.612 31.3125 128.172 31.2344 128.484 31.0781L128.562 31.0977L128.367 36H113.738V9.88672C114.09 9.91276 114.48 9.93229 114.91 9.94531L116.277 9.98438C117.189 10.0104 118.178 10.0234 119.246 10.0234C122.228 10.0234 125.177 9.97135 128.094 9.86719C127.951 11.013 127.879 12.543 127.879 14.457C127.879 14.6654 127.892 14.8216 127.918 14.9258L127.879 14.9844C127.202 14.7891 126.238 14.6914 124.988 14.6914H118.836V19.6719H123.465C124.897 19.6719 125.757 19.6328 126.043 19.5547L126.102 24.3789C125.477 24.3138 124.669 24.2812 123.68 24.2812H118.836V31.3125H126.805ZM145.633 11.918C145.906 11.3451 146.043 10.9219 146.043 10.6484C146.043 10.362 146.017 10.1536 145.965 10.0234H152.996C152.853 10.1797 152.671 10.3685 152.449 10.5898C152.228 10.7982 151.98 11.0521 151.707 11.3516C151.056 12.0807 150.457 12.9271 149.91 13.8906L145.203 22.4844L149.598 30.7461L150.125 31.8203C151.115 33.8776 151.954 35.2708 152.645 36H146.277C146.225 35.5443 146.004 34.9323 145.613 34.1641L141.785 26.8203C139.09 32.276 137.71 35.0885 137.645 35.2578C137.579 35.4792 137.527 35.7266 137.488 36H131.121C131.603 35.5052 132.098 34.8086 132.605 33.9102L134.949 29.75L139.109 22.6992L133.641 12.4062C133.055 11.2995 132.54 10.5052 132.098 10.0234H138.66C138.608 10.1536 138.582 10.2969 138.582 10.4531C138.582 10.8047 138.745 11.293 139.07 11.918L142.332 18.4414L145.633 11.918Z" fill="white"/>
<path d="M45.8281 32.9141C44.6432 31.7812 43.7057 30.4206 43.0156 28.832C42.3385 27.2435 42 25.5052 42 23.6172C42 21.7161 42.319 19.9193 42.957 18.2266C43.5951 16.5339 44.5065 15.043 45.6914 13.7539C46.8763 12.4648 48.3086 11.4427 49.9883 10.6875C51.668 9.91927 53.5495 9.53516 55.6328 9.53516C59.2266 9.53516 62.2539 10.668 64.7148 12.9336C67.3451 15.3555 68.6602 18.6237 68.6602 22.7383C68.6602 26.7227 67.306 30.0365 64.5977 32.6797C62.931 34.3073 60.9453 35.4271 58.6406 36.0391C57.5078 36.3385 56.1797 36.4883 54.6562 36.4883C53.1458 36.4883 51.5898 36.1758 49.9883 35.5508C48.3997 34.9258 47.013 34.0469 45.8281 32.9141ZM47.4297 23.3438C47.4297 24.5547 47.6315 25.668 48.0352 26.6836C48.4388 27.6992 48.9987 28.5716 49.7148 29.3008C51.2383 30.8372 53.1979 31.6055 55.5938 31.6055C57.8724 31.6055 59.7018 30.8698 61.082 29.3984C62.4883 27.875 63.1914 25.7982 63.1914 23.168C63.1914 20.694 62.5208 18.6302 61.1797 16.9766C59.7344 15.2057 57.7552 14.3203 55.2422 14.3203C52.8073 14.3203 50.8737 15.2188 49.4414 17.0156C48.1003 18.6953 47.4297 20.8047 47.4297 23.3438Z" fill="#FF0000"/>
</g>
<ellipse cx="159" cy="38.0768" rx="3" ry="3.46154" fill="#FF0000"/>
<defs>
<filter id="filter0_i_540_4" x="13.7188" y="9.53516" width="139.277" height="30.9531" filterUnits="userSpaceOnUse" color-interpolation-filters="sRGB">
<feFlood flood-opacity="0" result="BackgroundImageFix"/>
<feBlend mode="normal" in="SourceGraphic" in2="BackgroundImageFix" result="shape"/>
<feColorMatrix in="SourceAlpha" type="matrix" values="0 0 0 0 0 0 0 0 0 0 0 0 0 0 0 0 0 0 127 0" result="hardAlpha"/>
<feOffset dy="4"/>
<feGaussianBlur stdDeviation="2"/>
<feComposite in2="hardAlpha" operator="arithmetic" k2="-1" k3="1"/>
<feColorMatrix type="matrix" values="0 0 0 0 0 0 0 0 0 0 0 0 0 0 0 0 0 0 0.25 0"/>
<feBlend mode="normal" in2="shape" result="effect1_innerShadow_540_4"/>
</filter>
</defs>
</svg>
